<?xml version="1.0" encoding="UTF-8" standalone="no"?>
<!-- Created with Inkscape (http://www.inkscape.org/) -->

<svg
   version="1.1"
   id="svg1"
   width="327.67999"
   height="327.67999"
   viewBox="0 0 327.67999 327.67999"
   sodipodi:docname="logo_concept_modern_organic.svg"
   inkscape:version="1.4.3 (0d15f75, 2025-12-25)"
   xmlns:inkscape="http://www.inkscape.org/namespaces/inkscape"
   xmlns:sodipodi="http://sodipodi.sourceforge.net/DTD/sodipodi-0.dtd"
   xmlns="http://www.w3.org/2000/svg"
   xmlns:svg="http://www.w3.org/2000/svg">
  <defs
     id="defs1" />
  <sodipodi:namedview
     id="namedview1"
     pagecolor="#ffffff"
     bordercolor="#000000"
     borderopacity="0.25"
     inkscape:showpageshadow="2"
     inkscape:pageopacity="0.0"
     inkscape:pagecheckerboard="0"
     inkscape:deskcolor="#d1d1d1"
     inkscape:zoom="2.3590088"
     inkscape:cx="196.05692"
     inkscape:cy="165.95953"
     inkscape:window-width="1920"
     inkscape:window-height="991"
     inkscape:window-x="-9"
     inkscape:window-y="-9"
     inkscape:window-maximized="1"
     inkscape:current-layer="g1" />
  <g
     inkscape:groupmode="layer"
     inkscape:label="Image"
     id="g1">
    <g
       id="g2"
       transform="translate(2)">
      <g
         id="g6">
        <path
           style="fill:#27411c;stroke:none"
           d="m 92.947896,245.42041 c -0.307106,-0.49691 0.132901,-5.63061 0.84856,-9.90042 4.57908,-27.31996 21.498794,-52.29906 45.403544,-67.03067 5.01641,-3.09142 13.15779,-6.90417 23.25721,-10.89175 24.36394,-9.61966 32.28768,-13.71141 41.95984,-21.66767 1.28539,-1.05735 2.40556,-1.85395 2.48928,-1.77023 0.32556,0.32556 -3.04221,4.40603 -6.41125,7.76801 -4.40667,4.39745 -8.77008,7.93548 -14.11551,11.44543 -5.68549,3.73325 -9.66924,5.90357 -22.85957,12.45376 -6.248,3.10269 -12.90882,6.62493 -14.80183,7.82719 -7.53855,4.7878 -14.43422,10.54885 -19.27817,16.10613 -2.93922,3.37205 -5.98129,7.64176 -5.73198,8.04514 0.38944,0.63014 18.674,0.0377 26.69198,-0.86481 21.25138,-2.39214 37.57842,-8.0216 50.13381,-17.28584 3.51998,-2.59729 9.63557,-8.67196 12.34937,-12.26675 6.93966,-9.19251 11.19967,-19.63063 13.20187,-32.34793 1.0857,-6.89596 0.99239,-20.44944 -0.19847,-28.8285 -0.50507,-3.55373 -0.66999,-3.66017 -2.43484,-1.5715 -10.69362,12.65572 -27.04239,20.85788 -52.93452,26.55718 -13.90093,3.05984 -18.73466,4.39869 -25.39722,7.03455 -23.76096,9.40035 -38.39637,26.9888 -41.90476,50.36001 -0.44145,2.94074 -0.57622,3.27344 -2.83867,7.00778 -1.306368,2.15626 -3.509521,6.15248 -4.895894,8.88048 l -2.520678,4.96 -0.16,-3.84 c -0.088,-2.112 -0.088,-30.768 0,-63.68 l 0.16,-59.840002 H 116.64 140.32 l 0.0822,22.706162 c 0.0452,12.48839 0.19594,22.81994 0.335,22.959 0.13905,0.13905 2.05714,-0.38351 4.26242,-1.16125 5.0892,-1.79481 10.24918,-3.15806 21.88042,-5.78071 7.92662,-1.78732 16.21657,-4.02724 19.43864,-5.25227 l 0.87559,-0.3329 0.0829,-16.569015 0.0829,-16.569017 23.65982,-0.08208 c 18.71822,-0.06494 23.71212,0.0019 23.91017,0.32 0.33214,0.533469 0.33945,162.525982 0.007,163.044152 -0.20383,0.31805 -5.20238,0.38493 -23.91752,0.32 L 187.36,245.59999 187.28048,223.04 c -0.0437,-12.408 -0.14348,-22.73025 -0.22164,-22.93832 -0.0976,-0.25984 -1.55048,0.11396 -4.63927,1.19362 -2.47343,0.86457 -7.1257,2.22183 -10.33836,3.01614 -8.39607,2.07589 -13.20498,2.78195 -29.04121,4.26396 l -2.4,0.2246 -0.16,18.39999 -0.16,18.4 -23.57985,0.0821 c -16.54154,0.0576 -23.643241,-0.0205 -23.792254,-0.26164 z"
           id="path3" />
      </g>
      <path
         style="fill:#253e1b"
         d="m 137.10362,244.83662 c -0.89136,-0.17951 -0.97246,-0.30128 -0.93145,-1.39851 0.0247,-0.66104 0.12606,-1.28302 0.22522,-1.38217 0.31432,-0.31432 1.53721,0.64445 1.37179,1.07551 -0.26451,0.68932 0.83905,0.87313 1.31709,0.21938 0.39828,-0.54468 0.43373,-0.50969 0.43373,0.428 0,0.56164 -0.13223,1.02116 -0.29383,1.02116 -0.16161,0 -0.48561,0.0525 -0.72,0.11663 -0.2344,0.0641 -0.86554,0.0281 -1.40255,-0.08 z m 50.91673,-0.004 c -0.0976,-0.15789 -0.0865,-1.15663 0.0246,-2.21942 0.1755,-1.67918 0.26216,-1.87216 0.66139,-1.47293 0.25268,0.25268 0.64282,0.45942 0.86697,0.45942 0.64227,0 1.37576,1.02558 1.52911,2.13802 0.1135,0.82338 0.0139,1.05197 -0.52102,1.19563 -1.01403,0.27233 -2.36324,0.21927 -2.561,-0.10072 z m -90.100352,-0.64831 c 0,-0.33846 -0.432,-1.04738 -0.96,-1.57538 -0.528,-0.528 -0.96,-1.25908 -0.96,-1.62462 0,-0.53123 -0.200971,-0.66462 -1.001347,-0.66462 h -1.001348 l 0.21537,-2.16 c 0.225599,-2.26259 1.050896,-6.07453 1.11194,-5.1359 0.01946,0.29926 0.216176,0.65926 0.437142,0.8 0.631024,0.40194 1.222111,2.45656 1.010748,3.51338 -0.167992,0.83996 -0.103616,0.95616 0.515854,0.93113 0.938956,-0.0379 1.626776,0.98522 0.951641,1.4156 -0.264,0.1683 -0.804,0.3082 -1.2,0.31089 -0.396,0.003 -0.715209,0.1129 -0.709354,0.2449 0.02169,0.48888 1.228239,1.68 1.701762,1.68 0.678844,0 0.973246,0.58302 0.551195,1.09156 -0.425382,0.51256 0.124224,1.0574 1.475939,1.46314 0.79608,0.23896 0.72426,0.27348 -0.619542,0.2978 -1.295935,0.0234 -1.52,-0.0632 -1.52,-0.58788 z m 3.745162,0.26222 c 0.2531,-0.2531 0.52055,-0.25585 0.944,-0.01 0.51796,0.30107 0.47439,0.34463 -0.35316,0.35316 -0.68843,0.007 -0.84839,-0.0859 -0.59084,-0.34343 z M 213.44,244.15999 c 0,-0.176 0.144,-0.32 0.32,-0.32 0.176,0 0.32,0.144 0.32,0.32 0,0.176 -0.144,0.32 -0.32,0.32 -0.176,0 -0.32,-0.144 -0.32,-0.32 z m -111.04,-4.48 c 0,-0.176 0.144,-0.32 0.32,-0.32 0.176,0 0.32,0.144 0.32,0.32 0,0.176 -0.144,0.32 -0.32,0.32 -0.176,0 -0.32,-0.144 -0.32,-0.32 z m 85.84715,-3.52 c 0,-0.792 0.0624,-1.116 0.13868,-0.72 0.0763,0.396 0.0763,1.044 0,1.44 -0.0763,0.396 -0.13868,0.072 -0.13868,-0.72 z m -78.41734,0.27057 c 0.16609,-0.49828 0.882,-0.58554 0.90709,-0.11057 0.009,0.176 -0.22329,0.36976 -0.51685,0.43057 -0.33367,0.0691 -0.47996,-0.0508 -0.39024,-0.32 z m 0.25019,-1.87057 c 0,-0.176 0.1355,-0.32 0.30111,-0.32 0.16562,0 0.39011,0.144 0.49889,0.32 0.10877,0.176 -0.0267,0.32 -0.30112,0.32 -0.27438,0 -0.49888,-0.144 -0.49888,-0.32 z m 78.12829,-14.69333 c -0.0266,-7.99333 0.0318,-14.45321 0.12976,-14.35528 0.0979,0.0979 0.18375,0.91393 0.19071,1.81333 0.007,0.89941 0.14285,1.63529 0.30195,1.63529 0.15911,0 0.28929,0.216 0.28929,0.48 0,0.264 -0.13974,0.48 -0.31052,0.48 -0.18977,0 -0.29131,1.98413 -0.26113,5.1025 0.0272,2.80638 0.15052,5.04 0.27413,4.9636 0.12362,-0.0764 0.30262,0.15885 0.39779,0.52277 0.11594,0.44335 0.0424,0.61156 -0.22278,0.50979 -0.29949,-0.11492 -0.39114,0.65761 -0.37665,3.17468 0.0105,1.82961 0.14516,3.32658 0.29916,3.32661 0.154,2e-5 0.17238,0.46804 0.0409,1.04004 -0.13153,0.572 -0.3438,2.12 -0.47171,3.44 -0.13389,1.3818 -0.25305,-3.76578 -0.28085,-12.13333 z M 116.32,229.11999 c -0.26786,-0.43339 0.0936,-0.96 0.65888,-0.96 0.519,0 0.54022,0.0615 0.26688,0.77383 -0.22082,0.57546 -0.63384,0.65852 -0.92576,0.18617 z m -14.65561,-0.20227 c -0.43755,-0.43755 -0.21529,-0.80081 0.42828,-0.69998 0.35897,0.0562 0.65458,0.24625 0.65691,0.42225 0.005,0.38948 -0.77403,0.58889 -1.08519,0.27773 z m 1.21561,-1.39773 c 0.10877,-0.176 0.26127,-0.32 0.33888,-0.32 0.0776,0 0.14112,0.144 0.14112,0.32 0,0.176 -0.1525,0.32 -0.33889,0.32 -0.18638,0 -0.24989,-0.144 -0.14111,-0.32 z m -5.200002,-0.87148 c -0.572,-0.071 -1.04,-0.23367 -1.04,-0.36151 0,-0.12785 0.43937,-1.63806 0.976378,-3.35604 l 0.976378,-3.12358 0.943622,1.01015 c 0.518994,0.55558 0.943624,1.21092 0.943624,1.45631 0,0.24789 0.31995,0.44833 0.72,0.45106 0.55619,0.004 0.61548,0.071 0.26057,0.29561 -0.37902,0.23983 -0.38676,0.37825 -0.0443,0.79094 0.22833,0.27513 0.3311,0.8261 0.22836,1.22439 -0.18675,0.72403 -1.844826,1.88957 -2.550605,1.79294 -0.205737,-0.0282 -0.842067,-0.10929 -1.414067,-0.18027 z M 192.9,222.8214 c 0.231,-0.0924 0.507,-0.0811 0.61333,0.0253 0.10633,0.10634 -0.0827,0.18197 -0.42,0.16807 -0.37278,-0.0153 -0.44861,-0.0912 -0.19333,-0.19333 z M 190.56,219.2 c 0.10877,-0.176 0.33327,-0.32 0.49888,-0.32 0.16561,0 0.30112,0.144 0.30112,0.32 0,0.176 -0.2245,0.32 -0.49889,0.32 -0.27439,0 -0.40989,-0.144 -0.30111,-0.32 z m -84.96,-1.92 c 0,-0.176 0.216,-0.32 0.48,-0.32 0.264,0 0.48,0.144 0.48,0.32 0,0.176 -0.216,0.32 -0.48,0.32 -0.264,0 -0.48,-0.144 -0.48,-0.32 z m -1.13723,-0.34789 c -0.11826,-0.19133 -0.066,-0.49688 0.1161,-0.67899 0.50682,-0.50682 0.0795,-1.21312 -0.73393,-1.21312 -0.39962,0 -0.90584,-0.216 -1.12494,-0.48 -0.2191,-0.264 -0.66873,-0.48 -0.99918,-0.48 -0.33045,0 -0.60082,-0.1057 -0.60082,-0.23488 0,-0.12918 0.59486,-1.48662 1.32191,-3.01653 1.15883,-2.43849 1.39083,-2.73863 1.88047,-2.43284 0.38431,0.24 0.56731,0.78547 0.58665,1.74858 0.033,1.64454 0.23536,2.06516 0.95932,1.99413 1.02059,-0.10013 1.33165,0.0252 1.33165,0.53655 0,0.40147 -0.25027,0.48579 -1.13523,0.38247 -1.05729,-0.12343 -1.12869,-0.0764 -1.04,0.68499 0.067,0.57488 0.26144,0.78962 0.65523,0.7235 0.308,-0.0517 0.56,0.0563 0.56,0.24 0,0.18371 -0.12798,0.33403 -0.28439,0.33403 -0.15641,0 -0.37894,0.504 -0.4945,1.12 -0.21074,1.12334 -0.59676,1.42189 -0.99834,0.77211 z M 209.92,213.03697 c 0,-0.22166 0.27519,-0.57489 0.61154,-0.78494 0.49723,-0.31053 0.64696,-0.28961 0.80104,0.1119 0.10422,0.2716 0.10853,0.62483 0.01,0.78494 -0.27168,0.43958 -1.42215,0.34905 -1.42215,-0.1119 z m -71.12,-0.6263 c -0.308,-0.38546 -0.56,-0.88756 -0.56,-1.11576 0,-0.2282 -0.16413,-0.41491 -0.36473,-0.41491 -0.4759,0 -1.21212,-0.9798 -1.2251,-1.63041 -0.0137,-0.68938 1.20441,-1.76732 1.56633,-1.38603 0.15476,0.16304 0.33991,0.58444 0.41144,0.93644 0.0715,0.352 0.30151,0.604 0.51106,0.56 0.26122,-0.0549 0.381,0.52361 0.381,1.84 0,1.056 -0.036,1.91809 -0.08,1.91576 -0.044,-0.002 -0.332,-0.31962 -0.64,-0.70509 z m 74,-0.32322 c 0,-0.58334 0.5673,-1.06682 0.88224,-0.75188 0.10981,0.10982 -0.0438,0.44309 -0.34129,0.74062 -0.49886,0.49886 -0.54095,0.49973 -0.54095,0.0113 z m 1.30822,-1.15472 c -0.29069,-0.54315 -0.23882,-0.68433 0.31613,-0.86047 0.91172,-0.28936 1.09198,-0.004 0.51627,0.81829 -0.48344,0.6902 -0.48553,0.69031 -0.8324,0.0422 z M 210.56,210.25988 c 0,-0.16506 0.27802,-0.27917 0.61783,-0.25357 0.3398,0.0256 0.5473,0.16065 0.46111,0.30011 -0.21929,0.35482 -1.07894,0.31774 -1.07894,-0.0465 z m -65.12,-3.40789 c -0.352,-0.26821 -0.59769,-0.69563 -0.54598,-0.94982 0.0517,-0.2542 -0.12458,-0.46217 -0.39178,-0.46217 -0.26719,0 -0.7092,-0.432 -0.98224,-0.96 -0.27304,-0.528 -0.63674,-0.96 -0.80822,-0.96 -0.17148,0 -0.31178,-0.26837 -0.31178,-0.59637 0,-0.47671 0.24285,-0.59636 1.21045,-0.59636 0.66575,0 1.51458,-0.0965 1.88628,-0.2145 0.42504,-0.1349 0.85798,-0.0323 1.16669,0.27636 0.26997,0.26998 0.73664,0.49087 1.03702,0.49087 0.46216,0 2.05956,1.3659 2.05956,1.76108 0,0.0705 0.50569,0.61923 1.12377,1.2195 l 1.12377,1.09139 -1.48844,0.20401 c -2.4328,0.33346 -4.39678,0.21591 -5.0791,-0.30399 z M 123.2,206.4 c 0,-0.176 0.144,-0.32 0.32,-0.32 0.176,0 0.32,0.144 0.32,0.32 0,0.176 -0.144,0.32 -0.32,0.32 -0.176,0 -0.32,-0.144 -0.32,-0.32 z m 107.83999,-0.8 c 0,-0.29334 0.1548,-0.48174 0.344,-0.41867 0.1892,0.0631 0.344,0.25147 0.344,0.41867 0,0.1672 -0.1548,0.3556 -0.344,0.41866 -0.1892,0.0631 -0.344,-0.12533 -0.344,-0.41866 z m -121.23047,-0.87988 c -0.35727,-0.57807 -1.01857,-1.39769 -1.46955,-1.82136 -0.45099,-0.42368 -0.81997,-0.9389 -0.81997,-1.14493 0,-0.34303 2.28849,-4.11428 2.87845,-4.74348 0.34454,-0.36745 1.60155,0.34287 1.60155,0.905 0,0.24907 0.21364,0.5724 0.47476,0.71853 0.30393,0.17009 0.4961,0.83004 0.53408,1.83408 0.0489,1.29244 -0.0628,1.64947 -0.63476,2.02924 -0.38174,0.25347 -0.69408,0.74458 -0.69408,1.09135 0,0.34678 -0.2747,0.97973 -0.61045,1.40656 l -0.61045,0.77606 z m 1.87538,0.79988 c 0.003,-0.132 0.13886,-0.45183 0.3026,-0.71074 0.36868,-0.58297 0.80121,-0.21837 0.54207,0.45693 -0.19138,0.49875 -0.85374,0.69777 -0.84467,0.25381 z m 2.2351,-0.0584 c 0,-0.39137 1.18159,-0.76016 1.60235,-0.50011 0.18045,0.11152 0.24524,0.33682 0.14398,0.50066 -0.23997,0.38829 -1.74633,0.38781 -1.74633,-5.5e-4 z m 45.55967,-0.29138 c -0.37418,-0.31268 -0.91787,-1.02789 -1.20821,-1.58935 -0.36927,-0.71409 -0.75682,-1.02083 -1.28972,-1.02083 -0.60428,0 -0.72722,-0.13236 -0.59446,-0.64 0.17543,-0.67087 -0.35587,-0.8886 -0.72216,-0.29594 -0.13574,0.21964 -0.49584,0.078 -0.99574,-0.39161 -0.66885,-0.62835 -0.83172,-0.66688 -1.11642,-0.26407 -0.28308,0.40051 -0.30848,0.39319 -0.16848,-0.0486 0.17247,-0.54416 -0.92427,-1.23875 -1.95954,-1.24102 -0.81073,-0.002 -2.75665,-1.27721 -2.42767,-1.59119 0.1555,-0.1484 1.52325,-0.37023 3.03944,-0.49296 l 2.75672,-0.22314 0.20654,0.82295 c 0.14489,0.57727 0.35604,0.76558 0.70729,0.63079 0.35598,-0.1366 0.47068,-0.0273 0.39674,0.3781 -0.0572,0.31364 0.076,0.63319 0.296,0.71011 0.23675,0.0828 0.4,-0.1322 0.4,-0.5268 0,-0.83906 0.37668,-0.84802 1.12,-0.0267 0.32845,0.36294 0.41919,0.64 0.20959,0.64 -0.56911,0 -0.43874,0.44286 0.25857,0.87834 0.5451,0.34042 0.60064,0.31887 0.42008,-0.16303 -0.18146,-0.48429 -0.13954,-0.49958 0.32777,-0.11951 0.29471,0.23969 0.74314,0.35625 0.99652,0.25902 0.25337,-0.0972 0.63283,0.0307 0.84325,0.2842 0.21042,0.25353 0.76095,0.46556 1.2234,0.47115 0.76736,0.009 0.79189,0.0473 0.28082,0.43528 -0.7618,0.57829 -0.71352,0.66369 0.42015,0.74319 0.55157,0.0387 1.26038,0.38791 1.62374,0.8 0.35468,0.40225 0.5534,0.55136 0.4416,0.33136 -0.1118,-0.22 -0.0508,-0.4 0.13562,-0.4 0.18639,0 0.33889,0.15249 0.33889,0.33888 0,0.18639 0.12278,0.263 0.27285,0.17025 0.15007,-0.0927 0.53518,0.0232 0.85579,0.25762 0.51403,0.37586 0.24535,0.48821 -2.27285,0.9504 -3.53564,0.64893 -3.96661,0.64293 -4.81612,-0.067 z m 0.20033,-2.44014 c 0,-0.28627 -0.18762,-0.39796 -0.48,-0.28576 -0.264,0.1013 -0.48,0.31278 -0.48,0.46995 0,0.15717 0.216,0.28577 0.48,0.28577 0.264,0 0.48,-0.21149 0.48,-0.46996 z M 187.99996,202 c -0.23002,-2.80746 -0.28054,-2.96 -0.98041,-2.96 -0.40584,0 -1.09743,0.13669 -1.53686,0.30376 -0.71808,0.27302 -0.81922,0.21158 -0.99897,-0.60681 -0.21106,-0.96097 -0.97437,-1.80532 -2.16593,-2.3959 -0.5141,-0.25481 -0.74582,-0.69165 -0.81657,-1.5394 -0.088,-1.05402 -0.16234,-1.14393 -0.67919,-0.82115 -0.48632,0.30371 -0.76668,0.17618 -1.72964,-0.78678 l -1.14925,-1.14925 2.06085,-0.6858 c 2.15817,-0.7182 2.71601,-0.65851 2.71601,0.29062 0,0.5573 0.92936,1.63071 1.41187,1.63071 0.13282,0 0.73093,0.504 1.32915,1.12 0.59822,0.616 1.31073,1.12 1.58337,1.12 0.27263,0 0.59083,0.252 0.7071,0.56 0.3195,0.84631 1.89097,2.32 2.47393,2.32 0.65672,0 0.99005,0.84299 0.54525,1.37894 -0.24825,0.29912 -0.17595,0.66227 0.26598,1.33596 0.3338,0.50884 0.53461,1.04215 0.44624,1.18513 -0.0884,0.14298 -0.008,0.25997 0.17822,0.25997 0.18639,0 0.33889,0.20251 0.33889,0.45004 0,0.29165 -0.22399,0.39147 -0.63641,0.28362 -0.35558,-0.093 -0.54667,-0.32688 -0.43305,-0.53005 0.11917,-0.2131 0.025,-0.19804 -0.2276,0.0364 -0.23702,0.22 -0.62843,0.4 -0.8698,0.4 -0.50903,0 -1.17562,0.60334 -1.42048,1.28571 -0.0936,0.26086 -0.27932,-0.85771 -0.4127,-2.48571 z m 2.54637,-0.37789 c 0.10126,-0.16384 0.0378,-0.38834 -0.14111,-0.49889 -0.17888,-0.11055 -0.32522,0.0235 -0.32522,0.29789 0,0.56209 0.19201,0.64485 0.46633,0.201 z M 108.16,204 c 0,-0.264 0.0566,-0.48 0.12576,-0.48 0.0692,0 0.20865,0.216 0.30996,0.48 0.1013,0.264 0.0447,0.48 -0.12577,0.48 -0.17047,0 -0.30995,-0.216 -0.30995,-0.48 z m -14.320002,-0.31867 c -0.270776,-0.30755 -0.397232,-1.6217 -0.391432,-4.06783 l 0.0086,-3.6135 1.137162,1.84 c 0.625439,1.012 1.341583,1.84 1.591432,1.84 0.656079,0 0.571423,0.42617 -0.510337,2.56912 -1.01953,2.01968 -1.196549,2.15781 -1.835393,1.43221 z m 20.300002,-0.368 c -0.43963,-0.43963 -0.2116,-1.11864 0.34,-1.01242 0.308,0.0593 0.56,0.30988 0.56,0.5568 0,0.50523 -0.56458,0.79105 -0.9,0.45562 z m 25.58747,-0.0125 c -0.0916,-0.0916 -0.0318,-0.52118 0.13296,-0.95454 0.38465,-1.0117 0.37707,-1.15194 -0.0481,-0.8892 -0.2178,0.13461 -0.32407,-0.0675 -0.28457,-0.54111 0.15256,-1.8297 0.10766,-1.87595 -1.82115,-1.87595 -2.84018,0 -1.88806,-0.2124 1.97334,-0.4402 1.936,-0.11422 3.33512,-0.0864 3.10916,0.0619 -0.22596,0.14823 -0.31856,0.51 -0.20577,0.80393 0.11546,0.30088 0.0503,0.53442 -0.14916,0.53442 -0.19483,0 -0.35423,0.288 -0.35423,0.64 0,0.35555 -0.21334,0.64 -0.48,0.64 -0.264,0 -0.48,0.25599 -0.48,0.56888 0,0.59313 -1.10216,1.74229 -1.39253,1.45192 z M 212.16,203.02111 c 0,-0.27439 0.144,-0.40989 0.32,-0.30111 0.176,0.10877 0.32,0.33327 0.32,0.49888 0,0.16561 -0.144,0.30112 -0.32,0.30112 -0.176,0 -0.32,-0.2245 -0.32,-0.49889 z m -37.44,-0.99588 c 0,-0.97265 -0.38976,-1.30467 -3.2,-2.726 -2.27348,-1.14986 -2.96227,-1.6703 -2.63874,-1.99383 0.11593,-0.11593 -0.10692,-0.29387 -0.49524,-0.39542 -0.41276,-0.10794 -0.70602,-0.43496 -0.70602,-0.78731 0,-0.40878 -0.23164,-0.6058 -0.72,-0.61241 -1.17613,-0.0159 -0.0514,-0.49045 2.54317,-1.07308 1.26674,-0.28445 2.36277,-0.51718 2.43562,-0.51718 0.0728,0 0.0646,0.35473 -0.0182,0.78829 -0.13278,0.69462 0.0601,0.8847 1.62263,1.59944 1.02876,0.47056 1.85869,1.08009 1.97664,1.4517 0.11182,0.35231 0.4816,0.64057 0.82174,0.64057 0.43314,0 0.61844,0.22194 0.61844,0.74073 0,0.53148 0.31638,0.8916 1.12,1.27482 0.616,0.29375 1.12,0.6764 1.12,0.85033 0,0.17393 -0.828,0.54612 -1.84,0.82709 -1.012,0.28096 -2.02,0.56846 -2.24,0.63889 -0.2505,0.0802 -0.4,-0.18393 -0.4,-0.70663 z m -47.13375,-1.5263 c -0.93213,-0.33251 -1.43345,-0.35004 -2.16069,-0.0755 -0.82629,0.31189 -1.0386,0.26557 -1.66626,-0.36352 -1.0567,-1.05912 -0.36251,-1.32916 3.4319,-1.33498 3.00325,-0.005 3.14855,0.025 2.46707,0.5023 -0.49567,0.34718 -0.66277,0.70054 -0.52964,1.12 0.22732,0.71621 0.0805,0.73065 -1.54238,0.15173 z M 143.04,200 c 0,-0.41245 0.16205,-0.63932 0.4,-0.56 0.22,0.0733 0.4,0.32533 0.4,0.56 0,0.23466 -0.18,0.48666 -0.4,0.56 -0.23795,0.0793 -0.4,-0.14756 -0.4,-0.56 z m -21.56495,-2.20127 c -0.29177,-0.3224 -0.44485,-0.80933 -0.34019,-1.08207 0.13816,-0.36004 -0.0789,-0.55502 -0.79229,-0.71171 -0.54041,-0.11869 -0.98257,-0.35193 -0.98257,-0.5183 0,-0.16637 -0.34897,-0.43517 -0.77549,-0.59733 -0.44916,-0.17078 -0.81946,-0.60507 -0.88,-1.03208 -0.068,-0.48007 -0.35592,-0.77295 -0.82521,-0.83959 -0.39639,-0.0563 -0.86946,-0.38029 -1.05126,-0.72 -0.18181,-0.33971 -0.54656,-0.61765 -0.81056,-0.61765 -0.68507,0 -0.18841,-0.82258 1.83031,-3.03137 1.48298,-1.62263 1.69476,-1.75409 1.9854,-1.2325 0.17895,0.32113 0.51468,0.77415 0.74608,1.00672 0.2314,0.23257 0.42073,0.69087 0.42073,1.01844 0,0.32757 0.28815,0.68703 0.64034,0.79881 1.59955,0.50768 1.33246,1.86088 -0.56034,2.83894 -1.2218,0.63133 -1.3601,0.99067 -0.27662,0.71874 0.92336,-0.23175 1.62544,0.47854 1.38434,1.40051 -0.22957,0.87789 0.21439,0.80939 0.70585,-0.10891 0.40456,-0.75593 2.78637,-2.03611 3.13661,-1.68587 0.10356,0.10356 -0.40986,1.04103 -1.14094,2.08325 -0.73109,1.04223 -1.32924,2.04358 -1.32924,2.22521 0,0.62673 -0.55604,0.67119 -1.08495,0.0868 z M 119.04,190.72 c 0,-0.176 -0.144,-0.32 -0.32,-0.32 -0.176,0 -0.32,0.144 -0.32,0.32 0,0.176 0.144,0.32 0.32,0.32 0.176,0 0.32,-0.144 0.32,-0.32 z m -19.520002,3.08315 c 0,-0.59226 0.275636,-1.42726 0.612522,-1.85554 0.33689,-0.42829 0.66089,-1.19082 0.72,-1.69452 0.1559,-1.32843 1.22748,-1.42153 1.22748,-0.10664 0,0.82357 -2.00157,4.73355 -2.423171,4.73355 -0.07526,0 -0.136831,-0.48458 -0.136831,-1.07685 z m -1.066667,-1.37649 c -0.117333,-0.11733 -0.213333,-0.36213 -0.213333,-0.544 0,-0.20051 0.149046,-0.18162 0.378666,0.048 0.208267,0.20827 0.304267,0.45307 0.213334,0.544 -0.09093,0.0909 -0.261334,0.0693 -0.378667,-0.048 z M 97.149424,189.92 c -0.288299,-0.44 -0.670691,-0.8 -0.849761,-0.8 -0.179069,0 -0.73806,-0.30496 -1.242201,-0.67769 -0.504142,-0.37273 -1.074311,-0.58023 -1.267042,-0.46112 -0.250412,0.15477 -0.333164,-1.72953 -0.289951,-6.60231 0.04032,-4.54667 0.120294,-5.91251 0.24,-4.09888 0.157822,2.39112 0.252696,2.72 0.784653,2.72 0.332819,0 0.764819,0.28191 0.96,0.62648 0.563383,0.99458 1.058413,1.44133 1.327766,1.19828 0.136994,-0.12362 0.160426,0.0226 0.05207,0.32499 -0.108355,0.30236 -0.0593,0.63486 0.109014,0.73888 0.168314,0.10403 0.306025,0.62211 0.306025,1.15129 0,0.52918 0.173074,1.27668 0.38461,1.66111 0.430832,0.78296 0.404925,0.66385 0.691401,3.17897 0.23585,2.07064 -0.254403,2.49321 -1.206585,1.04 z m -0.829426,-6.09889 c 0,-0.27439 -0.146349,-0.40844 -0.32522,-0.29789 -0.178871,0.11055 -0.242372,0.33505 -0.141115,0.49889 0.274317,0.44385 0.466335,0.36109 0.466335,-0.201 z M 191.04,190.08 c 0,-0.176 0.1355,-0.32 0.30111,-0.32 0.16561,0 0.39011,0.144 0.49889,0.32 0.10877,0.176 -0.0267,0.32 -0.30112,0.32 -0.27439,0 -0.49888,-0.144 -0.49888,-0.32 z m -3.05724,-1.30789 c -0.27922,-0.45179 0.0693,-0.76261 1.52711,-1.36187 1.18451,-0.48692 1.18811,-0.486 0.8,0.20393 -0.74538,1.32501 -1.87612,1.88765 -2.32711,1.15794 z m 38.44098,-0.18562 c -0.23407,-0.60998 0.24315,-1.23597 0.71833,-0.94229 0.35295,0.21813 0.12699,1.4758 -0.26516,1.4758 -0.13664,0 -0.34057,-0.24008 -0.45317,-0.53351 z m -97.715,0.0552 c 0.12581,-0.13524 0.0847,-0.51495 -0.0913,-0.84381 -0.22187,-0.41457 -0.21263,-0.59792 0.0301,-0.59792 0.19258,0 0.25594,-0.15243 0.1408,-0.33874 -0.12009,-0.19431 -0.60567,-0.25169 -1.13889,-0.13457 -0.52379,0.11504 -0.92953,0.0697 -0.92953,-0.10395 0,-0.47394 1.35456,-0.71923 1.82335,-0.33017 0.22915,0.19018 0.43858,0.22016 0.46539,0.0666 0.0268,-0.15355 0.0822,-0.42318 0.12309,-0.59918 0.0409,-0.176 0.0955,-0.68 0.12143,-1.12 0.0463,-0.78692 0.0554,-0.78954 0.55358,-0.16 0.47412,0.5991 0.49341,0.53414 0.30189,-1.01671 -0.19152,-1.55085 -0.15809,-1.66346 0.52334,-1.76244 0.40036,-0.0582 1.1154,-0.0536 1.58899,0.0102 0.77989,0.10505 0.84772,0.22021 0.7195,1.22164 -0.0882,0.68884 -0.0207,1.03098 0.17894,0.90757 0.17627,-0.10894 0.3205,-0.0931 0.3205,0.0352 0,0.29122 -4.20313,4.71929 -4.64,4.88832 -0.176,0.0681 -0.21707,0.0132 -0.0913,-0.12208 z m 2.44577,-2.88562 c 0.1052,-0.54282 0.0727,-0.54902 -0.4,-0.0763 -0.61484,0.61484 -0.66774,0.98458 -0.11451,0.80038 0.22,-0.0733 0.45153,-0.39907 0.51451,-0.72404 z M 195.36,184.64 c 0.31855,-0.352 0.77287,-0.64 1.00959,-0.64 0.29067,0 0.22263,0.20777 -0.20959,0.64 -0.352,0.352 -0.80632,0.64 -1.0096,0.64 -0.2096,0 -0.11886,-0.27706 0.2096,-0.64 z m -70.24,-0.24985 c 0,-0.13741 -0.43167,-0.41278 -0.95927,-0.61193 -1.76418,-0.6659 -1.60949,-1.29747 0.89163,-3.64035 1.58951,-1.48895 2.60718,-2.1909 3.33726,-2.30193 1.38528,-0.21067 1.57939,-0.0536 1.13614,0.91919 -0.28891,0.6341 -0.2767,0.96184 0.0557,1.49404 0.23417,0.37497 0.29814,0.72664 0.14216,0.7815 -0.15597,0.0549 -0.49959,0.25235 -0.76359,0.43889 -0.36121,0.25522 -0.38101,0.37933 -0.08,0.50146 0.22,0.0893 0.4,0.43475 0.4,0.76772 0,0.51765 -0.119,0.56017 -0.82083,0.29334 -1.05722,-0.40196 -1.09917,-0.3968 -1.09917,0.1351 0,0.30086 -0.3403,0.43174 -1.04,0.4 -0.82667,-0.0375 -1.02072,0.0677 -0.94598,0.51282 0.0517,0.308 0.0157,0.56 -0.08,0.56 -0.0957,0 -0.17402,-0.11243 -0.17402,-0.24985 z m 3.11333,-2.50349 c -0.10633,-0.10633 -0.38233,-0.1177 -0.61333,-0.0253 -0.25528,0.10215 -0.17945,0.17798 0.19333,0.19333 0.33733,0.0139 0.52633,-0.0617 0.42,-0.16807 z m 70.39141,1.58 c 0.09,-0.23466 0.29232,-0.42666 0.44949,-0.42666 0.15717,0 0.28577,0.192 0.28577,0.42666 0,0.23467 -0.20228,0.42667 -0.4495,0.42667 -0.24722,0 -0.37581,-0.192 -0.28576,-0.42667 z m 1.51802,-1.73455 c -0.11825,-0.19133 -0.0853,-0.47762 0.0733,-0.63619 0.17107,-0.17107 0.30779,-0.0296 0.33623,0.34789 0.0535,0.71032 -0.0874,0.80952 -0.40954,0.2883 z m -96.71093,-1.70226 c -0.75261,-1.6518 -0.78809,-2.88659 -0.1078,-3.75145 l 0.64847,-0.8244 -0.78625,0.1503 c -0.6347,0.12133 -0.78625,0.0198 -0.78625,-0.527 0,-1.27879 -1.0829,-0.56124 -1.10809,0.73425 -0.0168,0.86416 -0.58695,0.95319 -1.478891,0.23095 -0.59043,-0.4781 -0.756209,-0.91043 -0.730153,-1.90411 0.02736,-1.04344 -0.09404,-1.32706 -0.64458,-1.5059 -0.605351,-0.19664 -0.616417,-0.23673 -0.102916,-0.37284 0.316455,-0.0839 0.807668,0.0394 1.091583,0.27392 0.455484,0.37626 0.496161,0.33231 0.345778,-0.37357 -0.09374,-0.44 -0.262202,-1.016 -0.374366,-1.28 -0.153451,-0.36118 0.04382,-0.49736 0.796905,-0.55011 0.74157,-0.0519 1.27709,0.19046 2.06722,0.93574 0.58651,0.55321 0.9993,1.11439 0.9173,1.24706 -0.082,0.13268 0.1277,0.32908 0.466,0.43645 0.3383,0.10737 0.69587,0.40574 0.7946,0.66304 0.0987,0.2573 0.39154,0.46782 0.65068,0.46782 0.25914,0 0.55182,0.13051 0.65041,0.29003 0.14821,0.23982 -1.55176,6.02691 -1.86138,6.33653 -0.0529,0.0529 -0.2546,-0.25164 -0.44827,-0.67671 z m 105.10306,-1.4092 c -0.30743,-0.3397 -0.43694,-0.84609 -0.32545,-1.27245 0.13261,-0.50709 0.0436,-0.7082 -0.31324,-0.7082 -0.27414,0 -0.58743,0.144 -0.6962,0.32 -0.25769,0.41694 -1.12,0.41481 -1.12,-0.003 0,-0.17753 0.3893,-0.7597 0.86512,-1.29373 1.12088,-1.258 2.14981,-1.17679 2.23606,0.1765 0.0336,0.528 0.15549,1.41094 0.27075,1.9621 0.25009,1.19581 -0.20666,1.60351 -0.91704,0.81855 z M 208.16,175.68 c 0.10877,-0.176 0.0453,-0.32 -0.14112,-0.32 -0.18639,0 -0.33888,0.144 -0.33888,0.32 0,0.176 0.0635,0.32 0.14111,0.32 0.0776,0 0.23011,-0.144 0.33889,-0.32 z m 2.08,0.64 c 0,-0.176 0.216,-0.32 0.48,-0.32 0.264,0 0.48,0.144 0.48,0.32 0,0.176 -0.216,0.32 -0.48,0.32 -0.264,0 -0.48,-0.144 -0.48,-0.32 z m 3.84,-0.14112 c 0,-0.27439 0.144,-0.49888 0.32,-0.49888 0.176,0 0.32,0.1355 0.32,0.30111 0,0.16561 -0.144,0.39011 -0.32,0.49889 -0.176,0.10877 -0.32,-0.0267 -0.32,-0.30112 z M 93.504362,136.13333 c 0.0354,-21.10533 0.1434,-36.645332 0.24,-34.53333 0.127109,2.77904 0.241946,3.5416 0.415636,2.76 0.132,-0.594 0.24,-1.51163 0.24,-2.03918 0,-0.81633 0.07149,-0.89986 0.48,-0.56082 0.493415,0.4095 0.65114,1.64219 0.260148,2.03318 -0.120919,0.12092 -0.242407,0.52601 -0.269975,0.9002 -0.04271,0.57979 0.0032,0.60745 0.310549,0.1871 0.304271,-0.41612 0.451578,-0.42678 0.942018,-0.0682 0.84145,0.61529 0.351747,1.10768 -1.101626,1.10768 -1.040253,0 -1.261114,0.11011 -1.261114,0.62874 0,0.75238 0.978316,1.35548 1.587774,0.97881 0.464491,-0.28707 1.932226,0.23236 1.932226,0.68381 0,0.14775 -0.352845,0.26864 -0.784099,0.26864 -0.431255,0 -0.943613,0.252 -1.138573,0.56 -0.253846,0.40102 -0.402193,0.44645 -0.522568,0.16 -0.269304,-0.64084 -1.07476,-0.46098 -1.07476,0.24 0,0.35555 0.213333,0.64 0.48,0.64 0.664772,0 0.604115,0.56064 -0.08,0.73941 -0.392799,0.10265 -0.329103,0.15743 0.213333,0.18347 0.425334,0.0204 0.678583,0.13187 0.562777,0.24767 -0.115807,0.11581 -0.05215,0.40142 0.141447,0.6347 0.272085,0.32784 0.160358,0.497 -0.492095,0.74507 l -0.844099,0.32092 0.08932,4.24438 0.08932,4.24438 0.8,-0.0803 c 0.44,-0.0442 1.16,0.20461 1.6,0.55289 l 0.8,0.63323 -0.96,0.045 c -0.528,0.0248 -1.068,0.028 -1.2,0.007 -0.132,-0.0208 -0.24,0.12151 -0.24,0.31634 0,0.19483 -0.216,0.27135 -0.48,0.17005 -0.375542,-0.14411 -0.475586,0.0748 -0.459716,1.00576 0.01851,1.08582 0.04711,1.12288 0.326874,0.4235 0.390912,-0.97726 0.60666,-0.77556 0.387993,0.36273 -0.09258,0.48195 -0.301595,0.79391 -0.46447,0.69325 -0.173308,-0.10711 -0.272873,0.82022 -0.240051,2.23582 0.03646,1.57231 0.171932,2.34724 0.387107,2.21425 0.190657,-0.11783 0.257948,-0.0127 0.158692,0.24791 -0.394861,1.03679 0.308486,1.84202 1.804974,2.06643 1.679756,0.2519 2.073496,1.10607 0.509856,1.10607 -0.611339,0 -1.066855,0.22069 -1.280866,0.62058 -0.413492,0.77261 0.12489,1.21108 0.799549,0.65117 0.498668,-0.41386 1.430058,-0.21327 1.430058,0.30798 0,0.17591 -0.380559,0.51922 -0.845686,0.76293 -0.540564,0.28323 -0.713747,0.52464 -0.48,0.6691 0.201127,0.12431 0.365686,0.65898 0.365686,1.18816 0,1.14836 0.550422,2.29321 0.976055,2.03015 0.16717,-0.10331 0.303945,-0.0443 0.303945,0.13115 0,0.17545 -0.252,0.30872 -0.56,0.29616 -0.308,-0.0126 -0.812,0.0838 -1.12,0.21413 -0.435011,0.18407 -0.56,0.0805 -0.56,-0.46394 0,-0.42265 -0.158799,-0.64489 -0.4,-0.5598 -0.22,0.0776 -0.38,0.37761 -0.355556,0.66667 0.02445,0.28906 -0.164054,0.52556 -0.418885,0.52556 -0.254832,0 -0.398342,-0.108 -0.318911,-0.24 0.07943,-0.132 0.03319,-0.816 -0.102751,-1.52 -0.193198,-1.0005 -0.249863,-0.63769 -0.259505,1.66155 -0.01042,2.48358 0.0708,2.96355 0.521636,3.08288 0.4766,0.12614 0.473803,0.14531 -0.02603,0.17845 -0.762128,0.0505 -0.708814,0.56356 0.08,0.76984 0.827897,0.2165 0.824585,0.87892 -0.0055,1.09599 -0.621723,0.16258 -0.644562,0.40881 -0.620549,6.69004 0.01466,3.83511 0.148728,6.52125 0.32548,6.52125 0.165302,0 0.300549,-0.144 0.300549,-0.32 0,-0.176 0.118034,-0.32 0.262298,-0.32 0.144264,0 0.252264,0.828 0.24,1.84 -0.019,1.56817 -0.105028,1.82611 -0.582298,1.74597 -0.47698,-0.0801 -0.56,0.16748 -0.56,1.66996 0,1.43651 0.08911,1.72979 0.48,1.57979 0.334445,-0.12834 0.48,0.0233 0.48,0.50008 0,0.37636 -0.201036,0.76143 -0.446747,0.85572 -0.345674,0.13264 -0.454068,1.04719 -0.479108,4.04239 -0.0178,2.12904 -0.104763,3.94337 -0.193254,4.03186 -0.08849,0.0885 -0.131927,-17.10711 -0.09653,-38.21244 z M 94.492718,134.08 c 0.204061,-0.78033 -0.06307,-1.92 -0.450042,-1.92 -0.155473,0 -0.282678,0.576 -0.282678,1.28 0,1.34337 0.446742,1.73358 0.73272,0.64 z m 49.729222,39.03438 c -0.66994,-0.70091 -1.35394,-1.27438 -1.52,-1.27438 -0.16607,0 -0.30194,-0.27288 -0.30194,-0.60639 0,-0.47663 0.28186,-0.63327 1.31717,-0.732 1.09582,-0.10451 1.39748,-0.003 1.79501,0.60364 0.2628,0.40109 0.60184,0.6526 0.75342,0.55892 0.24896,-0.15386 2.2144,0.68092 2.2144,0.94052 0,0.20388 -2.43399,1.79531 -2.7372,1.78969 -0.16654,-0.003 -0.85093,-0.57908 -1.52086,-1.28 z m -3.58558,-1.37489 c -0.526,-0.37613 -1.11554,-0.89079 -1.31009,-1.14368 -0.22275,-0.28955 -0.57821,-0.37429 -0.96,-0.22885 -0.40195,0.15312 -0.49843,0.12388 -0.28627,-0.0867 0.40025,-0.39739 4.05419,-2.60021 4.31311,-2.60021 0.10491,0 0.22447,0.44242 0.26567,0.98316 0.0528,0.69236 -0.14008,1.16246 -0.65194,1.58935 -0.39976,0.33341 -0.54684,0.61098 -0.32684,0.61684 0.43098,0.0115 0.55838,1.15499 0.15636,1.40345 -0.13401,0.0828 -0.67401,-0.15717 -1.2,-0.53331 z M 217.65822,170.08 c -0.28534,-0.62626 -0.27565,-0.8 0.0446,-0.8 0.52923,0 1.17714,0.65167 1.17714,1.184 0,0.71729 -0.84034,0.45317 -1.22178,-0.384 z M 101.76,170.24 c 0,-0.176 0.144,-0.32 0.32,-0.32 0.176,0 0.32,0.144 0.32,0.32 0,0.176 -0.144,0.32 -0.32,0.32 -0.176,0 -0.32,-0.144 -0.32,-0.32 z m 113.13521,0.0246 c -0.1004,-0.16246 -0.6129,-0.3899 -1.13888,-0.50543 -0.52599,-0.11552 -0.9505,-0.3786 -0.94337,-0.58462 0.0159,-0.45762 2.58107,-3.80204 3.02704,-3.94651 0.176,-0.057 0.56168,0.32104 0.85707,0.84012 0.50968,0.89566 0.5056,0.98381 -0.08,1.72828 -0.33939,0.43147 -0.61707,1.00199 -0.61707,1.26784 0,1.16972 -0.67228,1.90013 -1.10479,1.20032 z M 154.318,168.7474 c -0.22109,-0.0891 -0.32726,-0.28298 -0.23593,-0.43076 0.38513,-0.62316 -0.62074,-1.88265 -1.89098,-2.36776 -0.73287,-0.27989 -1.43568,-0.50888 -1.56179,-0.50888 -0.12612,0 -0.51569,-0.28639 -0.86573,-0.63643 -0.63523,-0.63523 -0.63345,-0.63792 0.94937,-1.44 1.82062,-0.92258 2.30224,-0.99973 2.04428,-0.32748 -0.11827,0.30819 0.1667,0.67497 0.80802,1.04 0.54489,0.31015 0.99162,0.67191 0.99273,0.80391 10e-4,0.132 0.28838,0.24 0.63837,0.24 0.8313,0 1.92366,0.94894 1.92366,1.67111 0,0.31289 0.18,0.56962 0.4,0.57053 0.22,9e-4 -0.176,0.3564 -0.88,0.79001 -1.30432,0.80335 -1.61155,0.88217 -2.322,0.59575 z m -45.80611,-2.21981 c -0.17501,-0.63382 -0.57778,-1.34433 -0.89505,-1.57891 -0.54303,-0.4015 -0.54564,-0.47932 -0.0445,-1.32759 0.29278,-0.4956 0.98907,-1.17353 1.54732,-1.5065 l 1.015,-0.60541 0.82267,0.82266 0.82266,0.82267 -1.34427,2.26274 c -0.73935,1.24451 -1.40307,2.26275 -1.47494,2.26275 -0.0719,0 -0.27386,-0.51859 -0.44886,-1.15241 z m 1.4667,-3.70759 c -0.10215,-0.25528 -0.17797,-0.17945 -0.19333,0.19333 -0.0139,0.33733 0.0617,0.52633 0.16807,0.42 0.10633,-0.10633 0.1177,-0.38233 0.0253,-0.61333 z m 51.94141,2.30429 c 0,-0.17836 -0.22571,-0.32429 -0.50157,-0.32429 -0.33486,0 -0.44161,-0.1889 -0.32118,-0.56835 0.15617,-0.49204 0.009,-0.55197 -1.09843,-0.44639 -0.77114,0.0735 -1.27882,-0.014 -1.27882,-0.22052 0,-0.18836 -0.45117,-0.85632 -1.00259,-1.48436 -0.55142,-0.62803 -0.94742,-1.18954 -0.88,-1.24779 0.35674,-0.30819 1.82261,-0.95653 3.35386,-1.48335 1.89431,-0.65174 1.89414,-0.65186 1.73779,1.23711 -0.0516,0.62337 0.0702,0.72906 0.73907,0.64141 0.52963,-0.0694 1.30077,0.26964 2.27711,1.00118 l 1.47627,1.10612 -1.21076,0.62171 c -2.14667,1.10229 -3.29075,1.5082 -3.29075,1.16752 z m 61.98871,-3.94063 c -0.18508,-0.48231 1.50862,-1.19122 2.25311,-0.94305 0.71959,0.23986 0.43062,1.03939 -0.37565,1.03939 -0.42561,0 -0.98303,0.0803 -1.23871,0.17839 -0.25568,0.0981 -0.54312,-0.0255 -0.63875,-0.27473 z M 171.68,160.08844 c -0.94635,-0.23261 -1.44,-0.72691 -1.44,-1.44186 0,-0.43303 -0.15271,-0.57646 -0.48,-0.45086 -0.264,0.1013 -0.48,0.0484 -0.48,-0.11755 0,-0.16596 -0.45917,-0.53918 -1.02036,-0.82939 l -1.02037,-0.52765 0.94037,-0.49281 c 0.51719,-0.27104 1.71965,-0.76675 2.67212,-1.10157 l 1.73177,-0.60876 0.77585,0.901 c 0.42673,0.49555 0.87143,1.05019 0.98824,1.23252 0.11681,0.18233 0.61184,0.63778 1.10007,1.01211 l 0.8877,0.6806 -1.72665,0.98789 c -0.94966,0.54334 -1.85312,0.97118 -2.0077,0.95077 -0.15457,-0.0204 -0.56904,-0.10792 -0.92104,-0.19444 z M 220.91572,159.84 c -0.10131,-0.264 -0.45679,-0.48 -0.78996,-0.48 -0.88751,0 -0.75537,-0.67666 0.69571,-3.56271 l 1.30147,-2.58851 0.77853,0.73139 c 0.82908,0.77888 1.01441,1.71627 0.41284,2.08806 -0.23375,0.14447 -0.0606,0.38588 0.48,0.66911 0.46513,0.2437 0.84568,0.57072 0.84568,0.7267 0,0.15599 0.0956,0.53268 0.2124,0.83711 0.17639,0.45965 0.0679,0.52586 -0.64,0.39054 -0.76256,-0.14577 -0.85239,-0.0664 -0.85239,0.75268 0,0.83465 -0.1,0.91563 -1.13005,0.91563 -0.70928,0 -1.19862,-0.17873 -1.31423,-0.48 z M 98.052861,156.43609 c -0.177286,-0.28686 1.127062,-1.68763 1.354098,-1.45421 0.03109,0.032 -0.01955,0.45412 -0.112523,0.93812 -0.172342,0.89715 -0.83566,1.17287 -1.241575,0.51609 z m -1.559198,-0.25398 c -0.236653,-0.38291 0.36532,-0.76231 0.791555,-0.49889 0.357874,0.22118 0.122933,0.79678 -0.32522,0.79678 -0.155226,0 -0.365077,-0.13405 -0.466335,-0.29789 z m 20.042927,-0.8041 c -0.0422,-0.62591 0.0359,-1.15001 0.17338,-1.16468 0.13752,-0.0147 0.60271,-0.0647 1.03377,-0.11122 0.43105,-0.0465 0.8396,-0.25215 0.90789,-0.457 0.0683,-0.20485 0.4356,-0.53837 0.81626,-0.74117 0.64461,-0.34342 0.65917,-0.32881 0.21211,0.21293 -0.264,0.31991 -1.06203,1.2156 -1.77339,1.99041 l -1.29338,1.40874 z m 63.42738,0.52028 c 0.089,-0.14394 -0.11854,-0.46373 -0.46111,-0.71065 -0.34258,-0.24691 -0.62286,-0.64514 -0.62286,-0.88495 0,-0.23982 -0.18,-0.37149 -0.4,-0.2926 -0.56042,0.20094 -1.52,-0.34615 -1.52,-0.86661 0,-0.23869 0.57891,-0.66563 1.28647,-0.94874 1.57604,-0.6306 1.6183,-0.63166 1.38925,-0.0347 -0.10131,0.264 -0.0248,0.48 0.17004,0.48 0.19483,0 0.35424,0.27242 0.35424,0.60538 0,0.46889 0.3427,0.66961 1.52,0.89027 l 1.52,0.28489 -1.46812,0.86973 c -1.49292,0.88442 -2.05907,1.07913 -1.76791,0.60802 z M 180.48,154.56 c 0,-0.176 -0.144,-0.32 -0.32,-0.32 -0.176,0 -0.32,0.144 -0.32,0.32 0,0.176 0.144,0.32 0.32,0.32 0.176,0 0.32,-0.144 0.32,-0.32 z m -63.46667,-1.17334 c -0.48578,-0.48578 -0.1663,-1.06666 0.58667,-1.06666 0.91541,0 0.98903,0.17668 0.34285,0.82285 -0.5162,0.51621 -0.62784,0.54549 -0.92952,0.24381 z M 181.12,153.26111 c 0,-0.18639 0.144,-0.24989 0.32,-0.14111 0.176,0.10877 0.32,0.26127 0.32,0.33888 0,0.0776 -0.144,0.14112 -0.32,0.14112 -0.176,0 -0.32,-0.1525 -0.32,-0.33889 z m 5.79141,-2.30583 c -0.97087,-0.49931 -1.46873,-1.28376 -1.22232,-1.92591 0.10503,-0.27369 1.11977,-0.9409 2.25498,-1.48268 2.40354,-1.14711 4.03585,-1.11067 3.97751,0.0888 -0.0441,0.90749 -0.66289,1.59746 -2.47589,2.76086 -1.73044,1.11043 -1.54255,1.06899 -2.53428,0.55894 z m 41.65868,-0.66647 c 0.10327,-0.6364 0.0533,-1.24022 -0.11117,-1.34184 -0.16441,-0.10161 -0.29893,-0.38287 -0.29893,-0.62503 0,-0.24215 -0.15475,-0.84565 -0.3439,-1.34111 -0.29344,-0.76864 -0.3991,-0.82982 -0.72,-0.41693 -0.48013,0.61776 -1.85602,1.2205 -2.3761,1.0409 -0.5491,-0.18963 -0.52357,-0.42723 0.44867,-4.1757 l 0.85356,-3.2909 0.94936,0.8909 c 0.52215,0.48999 1.26315,1.55718 1.64666,2.37153 0.38351,0.81434 0.94262,1.72595 1.24247,2.02579 0.29984,0.29985 0.44729,0.70354 0.32767,0.89709 -0.11962,0.19355 -0.18583,1.04594 -0.14712,1.8942 0.0387,0.84826 -0.0707,1.54229 -0.24319,1.54229 -0.17246,0 -0.35958,0.31272 -0.41582,0.69493 -0.0562,0.38222 -0.30423,0.76154 -0.55109,0.84295 -0.35104,0.11576 -0.40793,-0.10413 -0.26107,-1.00907 z M 114.24,149.13888 c 0,-0.16561 0.144,-0.39011 0.32,-0.49888 0.176,-0.10878 0.32,0.0267 0.32,0.30111 0,0.27439 -0.144,0.49889 -0.32,0.49889 -0.176,0 -0.32,-0.1355 -0.32,-0.30112 z M 104.32,146.88 c 0,-0.176 0.144,-0.32 0.32,-0.32 0.176,0 0.32,0.144 0.32,0.32 0,0.176 -0.144,0.32 -0.32,0.32 -0.176,0 -0.32,-0.144 -0.32,-0.32 z m 31.11502,-5.60861 c 0.12927,-0.13646 0.001,-0.41891 -0.28403,-0.62766 -0.41352,-0.30237 -0.45523,-0.56907 -0.20515,-1.31164 0.30373,-0.9019 0.3214,-0.90877 0.54559,-0.21209 0.25187,0.7827 1.1117,0.94886 1.72685,0.33371 0.30172,-0.30171 0.49959,-0.27299 0.90378,0.13121 0.47667,0.47666 0.44492,0.55445 -0.40228,0.98575 -1.15549,0.58825 -2.597,1.03035 -2.28476,0.70072 z m 65.2758,-1.16387 c 0.0683,-0.20487 0.62029,-0.73843 1.22667,-1.18569 l 1.10251,-0.81322 -1.10278,1.1857 c -1.15996,1.24718 -1.43095,1.42687 -1.2264,0.81321 z m -56.82105,-3.55771 c -0.46738,-0.4016 -0.84977,-0.97486 -0.84977,-1.2739 0,-0.3258 -0.35144,-0.63193 -0.87683,-0.76379 -0.48226,-0.12104 -1.05115,-0.39439 -1.26421,-0.60744 -0.56744,-0.56745 -0.84787,-1.9596 -0.44489,-2.20866 0.58741,-0.36304 0.38269,-0.81548 -0.37407,-0.82667 -1.06334,-0.0157 -2.16,-1.07169 -2.16,-2.07983 0,-0.71083 -0.0817,-0.80008 -0.45151,-0.49317 -0.56057,0.46524 -0.85689,0.0414 -0.61574,-0.88082 0.13257,-0.50694 0.42696,-0.69553 1.08568,-0.69553 0.49709,0 1.01004,-0.17191 1.13989,-0.38202 0.14008,-0.22664 0.37551,0.19633 0.57889,1.04 0.36033,1.49479 0.721,1.66965 2.34279,1.13587 0.59164,-0.19473 0.72,-0.11848 0.72,0.42772 0,0.36558 0.28364,0.90756 0.63032,1.20439 0.4302,0.36835 0.57159,0.77375 0.44531,1.27687 -0.15443,0.61529 -0.0588,0.73717 0.57856,0.73717 0.7236,0 1.86581,0.96076 1.86581,1.56942 0,0.15516 0.216,0.36499 0.48,0.4663 0.264,0.1013 0.48,0.41321 0.48,0.69312 0,0.27991 0.10958,0.4412 0.24353,0.35842 0.13394,-0.0828 0.49406,0.0327 0.80028,0.2566 0.49354,0.36089 0.35368,0.48481 -1.23201,1.09162 -2.19734,0.84087 -2.08844,0.84247 -3.12203,-0.0457 z m 10.67023,-2.8059 c 0,-0.20856 -0.576,-0.95521 -1.28,-1.65921 -0.704,-0.704 -1.28,-1.39103 -1.28,-1.52674 0,-0.1357 -0.54,-0.34765 -1.2,-0.47099 -1.38263,-0.25837 -2,-0.68111 -2,-1.36946 0,-0.26627 -0.35895,-0.81679 -0.79767,-1.22338 -0.9304,-0.86226 -0.97037,-0.82595 1.87137,-1.69967 2.77976,-0.85465 2.7663,-0.85595 2.7663,0.26665 0,0.96743 0.48651,1.59935 0.71155,0.92422 0.18828,-0.56484 0.88845,-0.003 0.88845,0.71355 0,0.34162 0.19944,0.62112 0.44319,0.62112 0.24376,0 0.68648,0.37129 0.98382,0.82509 0.29735,0.45381 0.72801,0.75319 0.95703,0.66531 0.24664,-0.0946 0.40001,0.0582 0.37618,0.3749 -0.03,0.39911 0.20681,0.52455 0.93399,0.49467 0.83922,-0.0345 1.02079,0.10881 1.31042,1.03417 0.3719,1.18819 0.51945,1.06834 -2.12463,1.72586 -0.792,0.19695 -1.692,0.43122 -2,0.52061 -0.30972,0.0899 -0.56,-0.007 -0.56,-0.2167 z M 227.42878,130.72 c 0.0969,-1.584 0.23152,-2.9424 0.29907,-3.01867 0.0676,-0.0763 0.28931,0.0278 0.4928,0.23132 0.27998,0.27998 0.27293,0.58301 -0.029,1.24566 -0.34422,0.75548 -0.32146,0.93236 0.16584,1.28868 0.35808,0.26183 0.41278,0.41301 0.14943,0.41301 -0.23628,0 -0.33661,0.20531 -0.23268,0.47616 0.10267,0.26754 0.0203,0.44279 -0.18797,0.4 -0.20388,-0.0419 -0.47488,0.35584 -0.60222,0.88384 -0.12734,0.528 -0.15222,-0.336 -0.0553,-1.92 z m -88.64577,0.9942 c -0.13094,-0.33319 -0.16269,-0.68119 -0.0705,-0.77334 0.29186,-0.29186 0.54866,0.18642 0.42637,0.79409 -0.11208,0.55691 -0.12919,0.55591 -0.35582,-0.0207 z m 33.84635,-2.64148 c 0.0588,-0.53537 -0.18586,-0.96299 -0.80179,-1.40157 -0.48751,-0.34714 -0.98742,-0.63115 -1.11092,-0.63115 -0.1235,0 -0.50385,-0.35509 -0.84523,-0.78908 -0.48746,-0.6197 -0.81645,-0.74992 -1.53272,-0.60666 -0.65991,0.13198 -1.09081,0.004 -1.5587,-0.46426 -0.35567,-0.35567 -0.73638,-0.55696 -0.84603,-0.44731 -0.10965,0.10965 -0.28069,-0.11165 -0.38009,-0.49176 -0.24743,-0.94617 -1.46215,-1.68438 -2.39316,-1.45438 -0.4184,0.10337 -0.67578,0.0937 -0.57195,-0.0214 0.19569,-0.21703 8.13032,-2.11465 8.87011,-2.12135 0.23039,-0.002 0.34178,0.12096 0.24755,0.27344 -0.0942,0.15248 0.11326,0.5348 0.46111,0.8496 0.7788,0.7048 0.79485,0.97982 0.0725,1.24096 -0.308,0.11134 -0.85859,0.38074 -1.22354,0.59868 -0.63537,0.37943 -0.63955,0.42149 -0.0985,0.99136 0.54945,0.57873 0.58534,0.57331 1.30353,-0.19688 1.28313,-1.37604 2.04139,-1.39932 3.47229,-0.10659 0.69744,0.6301 1.40165,1.14564 1.5649,1.14564 0.16325,0 0.34284,0.32253 0.39908,0.71673 0.0592,0.41471 0.37194,0.76742 0.74226,0.83702 0.60045,0.11285 1.10398,0.58718 1.1151,1.05044 0.003,0.1123 -1.3271,0.51717 -2.9551,0.89971 -4.31107,1.01299 -4.02667,1.00367 -3.93064,0.12882 z m 56.42663,-0.81672 c 0.29867,-0.29867 0.46934,-0.29867 0.768,0 0.29867,0.29866 0.21334,0.384 -0.384,0.384 -0.59733,0 -0.68266,-0.0853 -0.384,-0.384 z m -92.2446,-2.15758 c -0.24457,-0.39571 0.0765,-1.61842 0.42504,-1.61842 0.28681,0 0.28314,1.46736 -0.004,1.75473 -0.11438,0.11432 -0.30367,0.053 -0.42065,-0.13631 z M 186.4,125.44 c -0.11172,-0.352 -0.32741,-0.64 -0.47931,-0.64 -0.1519,0 -0.3222,-0.31272 -0.37844,-0.69493 -0.0625,-0.42495 -0.35089,-0.71446 -0.74225,-0.74521 -0.352,-0.0276 -1.1751,-0.24609 -1.82911,-0.48541 -0.9243,-0.33824 -1.11154,-0.52859 -0.84081,-0.8548 0.26872,-0.32379 0.19313,-0.41965 -0.3309,-0.41965 -0.45769,0 -0.67918,-0.20146 -0.67918,-0.61775 0,-0.38554 -0.25686,-0.65618 -0.68333,-0.72 -0.37583,-0.0562 -0.89091,-0.41649 -1.14462,-0.80055 -0.45101,-0.68273 -0.40329,-0.71663 2.13984,-1.52 3.06386,-0.96787 2.88811,-0.94708 2.88811,-0.3417 0,0.264 0.216,0.498 0.48,0.52 0.88175,0.0735 0.97126,0.11649 1.74785,0.84 0.42505,0.396 0.59187,0.72 0.3707,0.72 -0.2554,0 -0.13823,0.37061 0.32109,1.01568 0.39778,0.55862 0.77959,0.84662 0.84846,0.64 0.0689,-0.20663 0.41093,-0.37568 0.76013,-0.37568 0.4732,0 0.58681,0.15149 0.4461,0.59482 -0.21588,0.68018 0.3388,1.23407 2.01684,2.01395 l 1.13774,0.52878 -1.21699,0.50848 c -1.00318,0.41916 -4.25816,1.47397 -4.54844,1.47397 -0.0442,0 -0.17176,-0.288 -0.28348,-0.64 z m 0.8,-3.84 c 0,-0.176 -0.2245,-0.32 -0.49889,-0.32 -0.27439,0 -0.40989,0.144 -0.30111,0.32 0.10877,0.176 0.33327,0.32 0.49888,0.32 0.16561,0 0.30112,-0.144 0.30112,-0.32 z m 40.66526,2.69333 c 0.0153,-0.37278 0.0912,-0.44861 0.19333,-0.19333 0.0924,0.231 0.0811,0.507 -0.0253,0.61333 -0.10634,0.10633 -0.18197,-0.0827 -0.16807,-0.42 z M 227.74862,117.6 c -0.13825,-2.464 -0.33135,-5.128 -0.42909,-5.92 l -0.17772,-1.44 1.23795,1.28 c 0.68088,0.704 1.18484,1.45406 1.11992,1.6668 -0.0649,0.21274 0.0532,0.90577 0.26258,1.54006 0.3221,0.97597 0.3008,1.24146 -0.13854,1.72692 -0.28554,0.31552 -0.43554,0.79156 -0.33334,1.05788 0.11927,0.31081 -0.0438,0.54427 -0.45529,0.65188 -0.53404,0.13965 -0.6573,0.48067 -0.7381,2.04205 -0.0618,1.19504 -0.1881,0.25065 -0.34837,-2.60559 z m -29.78301,2.8405 c -0.29059,-0.60936 -0.70773,-1.0847 -0.92698,-1.0563 -0.88947,0.1152 -1.04265,-0.087 -1.13358,-1.49611 -0.0706,-1.09362 0.0116,-1.43565 0.32,-1.33219 0.22822,0.0766 0.41495,0.4148 0.41495,0.75165 0,0.45706 0.26385,0.63789 1.04,0.71272 1.05888,0.1021 1.43184,-0.36143 0.56,-0.69599 -0.264,-0.10131 -0.48,-0.40472 -0.48,-0.67424 0,-0.54581 0.81161,-0.66903 1.12,-0.17004 0.10877,0.176 0.41317,0.32 0.67644,0.32 1.17063,0 4.39699,1.94546 3.92916,2.36923 -0.21273,0.1927 -3.48217,1.8053 -4.25862,2.10051 -0.63662,0.24204 -0.80253,0.13296 -1.26137,-0.82924 z M 95.039998,119.50111 c 0,-0.27439 0.144,-0.40989 0.32,-0.30111 0.176,0.10877 0.32,0.33327 0.32,0.49888 0,0.16562 -0.144,0.30112 -0.32,0.30112 -0.176,0 -0.32,-0.2245 -0.32,-0.49889 z M 119.04,116.49004 c 0,-0.17048 0.216,-0.22707 0.48,-0.12576 0.264,0.1013 0.48,0.24078 0.48,0.30995 0,0.0692 -0.216,0.12577 -0.48,0.12577 -0.264,0 -0.48,-0.13948 -0.48,-0.30996 z m 73.92,-0.005 c -0.39564,-0.25167 -0.4097,-0.41877 -0.08,-0.95076 0.22,-0.35498 0.4,-0.95078 0.4,-1.324 0,-0.46105 0.14861,-0.62155 0.46361,-0.50067 0.28051,0.10764 0.5418,-0.0684 0.66157,-0.44576 0.21018,-0.66222 0.63913,-0.81446 0.93697,-0.33255 0.3133,0.50693 -0.1869,1.30888 -0.81639,1.30888 -0.60563,0 -0.7629,0.44976 -0.64342,1.84 0.0669,0.77841 -0.17097,0.88282 -0.92234,0.40486 z m 15.70931,-1.79862 -0.77069,-0.76624 h 1.01069 c 0.7856,0 1.01069,-0.13773 1.01069,-0.61844 0,-0.35017 -0.29597,-0.71237 -0.68229,-0.83498 -0.54725,-0.17369 -0.59475,-0.27829 -0.24,-0.52851 0.30801,-0.21725 0.12285,-0.25689 -0.60989,-0.13058 -0.77469,0.13354 -1.10237,0.0506 -1.24249,-0.31457 -0.32571,-0.84877 0.3901,-1.23047 1.2189,-0.64996 0.43432,0.30421 1.37962,0.51704 2.29649,0.51704 1.05019,0 1.81211,0.19962 2.3366,0.61218 l 0.77827,0.61219 -1.3678,1.10551 c -1.2662,1.0234 -2.62738,1.87634 -2.86676,1.79636 -0.0556,-0.0186 -0.44785,-0.37856 -0.87172,-0.8 z M 191.2,114.88 c -0.10878,-0.176 -0.0453,-0.32 0.14111,-0.32 0.18639,0 0.33889,0.144 0.33889,0.32 0,0.176 -0.0635,0.32 -0.14112,0.32 -0.0776,0 -0.23011,-0.144 -0.33888,-0.32 z m -70.73723,-0.66788 c -0.27461,-0.44432 0.33406,-1.07074 0.77537,-0.79799 0.3675,0.22713 0.13219,1.14587 -0.29349,1.14587 -0.14679,0 -0.36363,-0.15655 -0.48188,-0.34788 z m 68.494,-0.93734 c -0.11055,-0.17887 -0.33505,-0.24237 -0.49889,-0.14112 -0.18019,0.11137 -0.29788,-2.43631 -0.29788,-6.44811 0,-3.64772 0.0696,-6.5626 0.1547,-6.47752 0.0851,0.0851 0.17663,1.94509 0.20343,4.13334 0.0341,2.78161 0.18377,4.19751 0.49759,4.70614 0.24689,0.40014 0.40734,0.9612 0.35658,1.24681 -0.0508,0.2856 0.0975,0.58549 0.32952,0.66642 0.26446,0.0922 0.38383,-0.062 0.32,-0.4136 -0.14504,-0.79873 0.58183,-0.94662 0.78747,-0.16023 0.10134,0.3875 0.43556,0.65309 0.82186,0.65309 0.35809,0 0.74256,0.14802 0.85437,0.32894 0.31703,0.51296 -1.19145,1.61188 -2.02409,1.47453 -0.52458,-0.0865 -0.68975,0.005 -0.57005,0.31735 0.19385,0.50515 -0.63071,0.60569 -0.93461,0.11396 z m 18.57689,-0.29267 c -0.10126,-0.16384 -0.0378,-0.38834 0.14112,-0.49889 0.17887,-0.11054 0.32522,0.0235 0.32522,0.29789 0,0.56209 -0.19202,0.64485 -0.46634,0.201 z M 95.573331,112.10666 c -0.435073,-0.43507 -0.19025,-0.74666 0.586667,-0.74666 0.497778,0 0.8,0.18133 0.8,0.48 0,0.47996 -0.984114,0.66922 -1.386667,0.26666 z M 192.64,108.65888 c 0,-0.25361 0.12891,-0.54078 0.28646,-0.63816 0.32942,-0.20359 0.72661,0.61953 0.43815,0.90799 -0.34336,0.34337 -0.72461,0.2014 -0.72461,-0.26983 z m 24.76686,-0.0989 c -0.36624,-1.18521 -0.69209,-1.4814 -2.30329,-2.0936 -1.9902,-0.75622 -2.12929,-1.1864 -0.38357,-1.1864 0.88075,0 1.28,-0.13904 1.28,-0.44577 0,-0.24517 0.23661,-0.53656 0.5258,-0.64753 0.53724,-0.20616 0.33981,-0.6667 -0.2858,-0.6667 -0.19067,0 -0.40667,-0.18 -0.48,-0.4 -0.0733,-0.22 0.0947,-0.4 0.37333,-0.4 0.27867,0 0.50667,-0.216 0.50667,-0.48 0,-0.77819 0.55339,-0.54863 0.7714,0.32 0.13397,0.53379 0.42312,0.8 0.86893,0.8 0.46243,0 0.61143,0.14778 0.48394,0.48 -0.1013,0.264 -0.009,0.48797 0.20577,0.4977 0.21447,0.01 0.73362,0.45226 1.15365,0.98337 l 0.76369,0.96566 -1.39032,1.41664 c -1.53291,1.56192 -1.83411,1.68536 -2.0902,0.85663 z M 207.36,108.48 c 0,-0.176 0.216,-0.32 0.48,-0.32 0.264,0 0.48,0.144 0.48,0.32 0,0.176 -0.216,0.32 -0.48,0.32 -0.264,0 -0.48,-0.144 -0.48,-0.32 z m -90.88,-0.65889 c 0,-0.18638 0.144,-0.24989 0.32,-0.14111 0.176,0.10877 0.32,0.26127 0.32,0.33888 0,0.0776 -0.144,0.14112 -0.32,0.14112 -0.176,0 -0.32,-0.1525 -0.32,-0.33889 z M 98.559998,107.04 c 0,-0.29334 0.1548,-0.48174 0.344,-0.41867 0.1892,0.0631 0.344,0.25147 0.344,0.41867 0,0.1672 -0.1548,0.3556 -0.344,0.41866 -0.1892,0.0631 -0.344,-0.12533 -0.344,-0.41866 z M 191.68,107.104 c 0,-0.59362 0.67016,-1.184 1.344,-1.184 0.60799,0 0.70016,0.26409 0.38176,1.09383 -0.23266,0.6063 -1.72576,0.68431 -1.72576,0.0902 z M 97.919998,105.92 c 0,-0.176 0.152498,-0.32 0.338885,-0.32 0.186387,0 0.249889,0.144 0.141115,0.32 -0.108774,0.176 -0.261273,0.32 -0.338886,0.32 -0.07761,0 -0.141114,-0.144 -0.141114,-0.32 z m -1.567244,-2.53481 c -0.01802,-0.42614 -0.262863,-1.02906 -0.544104,-1.33983 -0.548271,-0.60583 -0.36922,-1.24536 0.348669,-1.24536 0.616154,0 0.822482,0.92211 0.501216,2.24 -0.211285,0.86673 -0.280433,0.94479 -0.305781,0.34519 z m 129.692936,-1.11921 c -0.10165,-0.26489 -0.44951,-0.56563 -0.77302,-0.66831 -0.32351,-0.10267 -0.6731,-0.57616 -0.77688,-1.05218 -0.37967,-1.741547 -0.442,-2.945492 -0.15249,-2.945492 0.16318,0 0.2989,0.54 0.3016,1.2 0.003,0.66 0.11069,1.043693 0.24,0.852652 0.1293,-0.191042 0.5184,-0.502287 0.86467,-0.691656 0.51551,-0.281929 0.76219,-0.201215 1.36154,0.4455 0.5237,0.565079 0.65278,0.943986 0.45367,1.331656 -0.15307,0.29802 -0.21701,0.7121 -0.1421,0.92018 0.0749,0.20809 -0.16268,0.5383 -0.52799,0.7338 -0.52723,0.28217 -0.7023,0.25616 -0.849,-0.12615 z m -26.30703,-1.32747 c 0.0557,-0.66497 0.28679,-1.269989 0.51345,-1.344482 0.30108,-0.09895 0.37854,0.191879 0.28749,1.079432 -0.16912,1.6485 -0.93821,1.90301 -0.80094,0.26505 z M 211.52,101.76 c -0.41366,-0.26733 -0.40522,-0.31088 0.0611,-0.3151 0.29761,-0.003 0.63011,0.1391 0.73889,0.3151 0.25029,0.40499 -0.17333,0.40499 -0.8,0 z m -103.84,-0.32 c 0.10877,-0.176 0.26127,-0.32 0.33888,-0.32 0.0776,0 0.14112,0.144 0.14112,0.32 0,0.176 -0.1525,0.32 -0.33889,0.32 -0.18638,0 -0.24989,-0.144 -0.14111,-0.32 z m 95.36,-0.32 c -0.10878,-0.176 -0.0453,-0.32 0.14111,-0.32 0.18639,0 0.33889,0.144 0.33889,0.32 0,0.176 -0.0635,0.32 -0.14112,0.32 -0.0776,0 -0.23011,-0.144 -0.33888,-0.32 z m -14.82948,-1.920002 c 0,-0.44 0.0726,-0.62 0.16141,-0.4 0.0888,0.22 0.0888,0.58 0,0.8 -0.0888,0.22 -0.16141,0.04 -0.16141,-0.4 z m -93.764686,0.0351 c -0.329892,-0.20903 -0.34173,-0.332228 -0.04929,-0.512964 0.21204,-0.131048 0.617426,-0.0053 0.902736,0.28 0.431793,0.431793 0.439986,0.517049 0.04929,0.512964 -0.257714,-0.0027 -0.663945,-0.128695 -0.902736,-0.28 z M 223.22654,97.962947 c -0.13785,-0.223041 -0.16421,-0.491949 -0.0586,-0.597572 0.28639,-0.286388 0.59865,0.134816 0.44397,0.598861 -0.1084,0.325176 -0.18377,0.324924 -0.38538,-0.0013 z M 93.539482,94.079998 c -0.0068,-1.32 0.05008,-2.076 0.12635,-1.68 0.07627,0.396 0.308663,0.722205 0.516422,0.7249 0.290149,0.0038 0.290102,0.06064 -2.05e-4,0.245257 -0.207871,0.132196 -0.434714,0.885991 -0.504093,1.6751 -0.0755,0.858714 -0.131095,0.471177 -0.138474,-0.965257 z m 94.701208,-0.16 c 0.004,-0.704 0.0691,-0.954321 0.14563,-0.556269 0.0765,0.398052 0.0736,0.974052 -0.006,1.28 -0.0801,0.305948 -0.14272,-0.01973 -0.13917,-0.723731 z m 30.63931,-1.76 c 0,-0.176 0.144,-0.32 0.32,-0.32 0.176,0 0.32,0.144 0.32,0.32 0,0.176 -0.144,0.32 -0.32,0.32 -0.176,0 -0.32,-0.144 -0.32,-0.32 z m -104.57867,-0.344 c 0.0631,-0.1892 0.25147,-0.344 0.41867,-0.344 0.1672,0 0.3556,0.1548 0.41866,0.344 0.0631,0.1892 -0.12533,0.344 -0.41866,0.344 -0.29334,0 -0.48174,-0.1548 -0.41867,-0.344 z m -20.766561,-4.456 c -0.01129,-2.2 0.04532,-3.748 0.125813,-3.44 0.162024,0.620003 0.903467,0.751216 1.232899,0.218185 0.116189,-0.187999 0.408076,-0.266288 0.648637,-0.173976 0.240561,0.09231 0.523946,0.02778 0.629743,-0.143404 0.359403,-0.581527 0.788137,0.05276 0.788137,1.166001 0,0.871463 -0.162023,1.170636 -0.756357,1.396601 -0.786887,0.299174 -1.163643,0.928549 -1.163643,1.94388 0,1.222916 -0.635727,0.937558 -0.87381,-0.392227 -0.237548,-1.32679 -0.252591,-1.290811 -0.428539,1.02494 -0.153064,2.01455 -0.185647,1.757583 -0.20288,-1.6 z m 24.065231,3.52 c -0.10878,-0.176 0.0352,-0.32 0.32,-0.32 0.28477,0 0.42877,0.144 0.32,0.32 -0.10878,0.176 -0.25278,0.32 -0.32,0.32 -0.0672,0 -0.21123,-0.144 -0.32,-0.32 z m 76.52428,-0.48 c -0.10131,-0.264 -0.0447,-0.48 0.12576,-0.48 0.17048,0 0.30996,0.216 0.30996,0.48 0,0.264 -0.0566,0.48 -0.12577,0.48 -0.0692,0 -0.20865,-0.216 -0.30995,-0.48 z m -69.16428,-1.12 c 0.10877,-0.176 0.33327,-0.32 0.49888,-0.32 0.16562,0 0.30112,0.144 0.30112,0.32 0,0.176 -0.2245,0.32 -0.49889,0.32 -0.27439,0 -0.40989,-0.144 -0.30111,-0.32 z m 63.25052,-0.64 c 0,-0.44 0.0726,-0.62 0.16141,-0.4 0.0888,0.22 0.0888,0.58 0,0.8 -0.0888,0.22 -0.16141,0.04 -0.16141,-0.4 z m -52.05052,-0.32 c -0.10878,-0.176 0.0352,-0.32 0.32,-0.32 0.28477,0 0.42877,0.144 0.32,0.32 -0.10878,0.176 -0.25278,0.32 -0.32,0.32 -0.0672,0 -0.21123,-0.144 -0.32,-0.32 z m 52.64,0.01888 c 0,-0.165613 0.144,-0.390111 0.32,-0.498885 0.176,-0.108774 0.32,0.02673 0.32,0.301115 0,0.274387 -0.144,0.498885 -0.32,0.498885 -0.176,0 -0.32,-0.135502 -0.32,-0.301115 z m 45.19424,-0.978885 c 0,-0.616 0.0659,-0.868 0.14634,-0.56 0.0805,0.308 0.0805,0.812 0,1.12 -0.0805,0.308 -0.14634,0.056 -0.14634,-0.56 z m -101.19424,0 c 0,-0.176 0.144,-0.32 0.32,-0.32 0.176,0 0.32,0.144 0.32,0.32 0,0.176 -0.144,0.32 -0.32,0.32 -0.176,0 -0.32,-0.144 -0.32,-0.32 z m 2.45333,-0.213333 C 135.136,87.029326 135.04,86.784526 135.04,86.60266 c 0,-0.200514 0.14904,-0.18162 0.37866,0.048 0.20827,0.208266 0.30427,0.453066 0.21334,0.544 -0.0909,0.09093 -0.26134,0.06933 -0.37867,-0.048 z m 52.91678,-2.426667 c -0.0109,-2.33187 -0.0506,-2.291967 1.95064,-1.960977 0.89573,0.148146 1.12779,0.318064 1.01636,0.744182 -0.0901,0.344635 0.16519,0.755059 0.67924,1.091875 0.916,0.600188 1.12682,1.349733 0.28923,1.028318 -0.29393,-0.112791 -0.65667,-0.0202 -0.80608,0.205764 -0.21224,0.320968 -0.36555,0.288339 -0.70086,-0.149162 -0.57103,-0.745052 -0.73447,-0.713236 -1.64388,0.32 l -0.77454,0.88 z M 137.16,85.624574 c -0.58661,-0.479746 -0.92,-1.055391 -0.92,-1.588491 0,-0.459847 -0.162,-0.83829 -0.36,-0.840985 -0.198,-0.0027 -0.144,-0.14449 0.12,-0.3151 0.264,-0.17061 1.164,-0.312405 2,-0.3151 l 1.52,-0.0049 v 1.725764 c 0,1.278473 -0.13119,1.776106 -0.50618,1.92 -0.73365,0.28153 -0.83953,0.248335 -1.85382,-0.581188 z m 83,0.295424 c 0,-0.293333 0.1548,-0.481733 0.344,-0.418667 0.1892,0.06307 0.344,0.251467 0.344,0.418667 0,0.1672 -0.1548,0.3556 -0.344,0.418667 -0.1892,0.06307 -0.344,-0.125334 -0.344,-0.418667 z M 116.83006,85.63622 c -0.26175,-0.315384 -0.27532,-0.524642 -0.0433,-0.668015 0.18579,-0.114824 0.42657,0.02257 0.53507,0.305312 0.27014,0.703965 -0.0268,0.922958 -0.49173,0.362703 z m 99.94466,-0.405742 c 0.1019,-0.265553 0.18528,-0.543046 0.18528,-0.616652 0,-0.07361 0.216,-0.133828 0.48,-0.133828 0.7256,0 0.5751,0.860486 -0.18528,1.05933 -0.49961,0.13065 -0.61914,0.05374 -0.48,-0.30885 z m 1.89895,0.04418 c -0.10244,-0.266935 -0.11884,-0.837912 -0.0365,-1.268836 0.0824,-0.430925 -0.009,-0.849155 -0.20371,-0.9294 -0.19442,-0.08025 0.54651,-0.157269 1.64651,-0.171164 1.13684,-0.01436 2,0.112842 2,0.294737 0,0.176 0.36849,0.32 0.81888,0.32 0.49849,0 0.73636,0.133531 0.60796,0.34129 -0.11601,0.18771 -0.28745,0.264776 -0.38096,0.171259 -0.0935,-0.09352 -0.4391,-0.02603 -0.76796,0.149969 -0.45687,0.244507 -0.59792,0.209891 -0.59792,-0.146733 0,-0.401972 -0.13897,-0.39741 -1.00151,0.03288 -0.55082,0.274789 -1.07162,0.767752 -1.15732,1.095474 -0.18823,0.719789 -0.6716,0.777388 -0.9275,0.110522 z M 109.76,84.594235 c 0,-0.823283 -0.65656,-1.150788 -2.49242,-1.243274 -0.75484,-0.03803 -1.46284,-0.159549 -1.57334,-0.270051 -0.1105,-0.110501 2.45109,-0.198707 5.69242,-0.196012 3.92324,0.0033 5.73288,0.108598 5.41334,0.3151 -0.264,0.17061 -0.7955,0.312405 -1.18112,0.3151 -0.38561,0.0027 -0.79422,0.155558 -0.90803,0.339696 -0.1138,0.184138 -0.60704,0.271736 -1.09608,0.194662 -0.99704,-0.157135 -1.44587,0.04417 -1.67346,0.750542 -0.0944,0.293056 -0.5493,0.48 -1.16798,0.48 -0.82254,0 -1.01333,-0.129117 -1.01333,-0.685763 z m 102.58856,0.57198 c -0.12787,-0.206898 -0.008,-0.455577 0.27115,-0.562713 0.67763,-0.260031 0.63546,-1.32125 -0.0597,-1.50292 -0.308,-0.08049 -0.0115,-0.163047 0.65888,-0.183463 0.73918,-0.02251 1.14105,0.08882 1.02112,0.282879 -0.10878,0.176 -0.0453,0.32 0.14111,0.32 0.62199,0 0.34857,0.593799 -0.37989,0.825001 -0.39532,0.125471 -0.87734,0.44499 -1.07115,0.710041 -0.25383,0.347132 -0.41647,0.378225 -0.58151,0.111175 z M 105.6,84.479998 c -0.41021,-0.265096 -0.39858,-0.310912 0.08,-0.3151 0.308,-0.0027 0.56,0.1391 0.56,0.3151 0,0.390275 -0.0361,0.390275 -0.64,0 z m 118.71999,-0.16 c -0.33687,-0.405914 -0.26883,-0.48 0.44082,-0.48 0.53261,0 0.83918,0.175357 0.83918,0.48 0,0.264 -0.19836,0.48 -0.44081,0.48 -0.24245,0 -0.62008,-0.216 -0.83919,-0.48 z m 4.87334,0.1 c 0.19778,-0.593351 0.88666,-0.691763 0.88666,-0.126667 0,0.278667 -0.228,0.506667 -0.50666,0.506667 -0.27867,0 -0.44967,-0.171 -0.38,-0.38 z M 125.12,83.818618 c 0,-0.340947 -0.29241,-0.630428 -0.72,-0.712785 -0.396,-0.07627 0.0455,-0.158289 0.98103,-0.182257 1.98867,-0.05095 3.1642,0.41946 2.63666,1.055102 -0.18899,0.227726 -0.91829,0.414047 -1.62066,0.414047 -1.01484,0 -1.27703,-0.117871 -1.27703,-0.574107 z m -8.96,0.215617 c 0,-0.06917 0.216,-0.208651 0.48,-0.309957 0.264,-0.101307 0.48,-0.04471 0.48,0.125763 0,0.170477 -0.216,0.309957 -0.48,0.309957 -0.264,0 -0.48,-0.05659 -0.48,-0.125763 z M 98.239998,83.542254 c 0,-0.163759 -0.324,-0.360148 -0.72,-0.436421 -0.396,-0.07627 -0.09037,-0.158289 0.679182,-0.182257 1.209854,-0.03768 1.345278,0.02137 1.000818,0.436422 -0.446421,0.537904 -0.96,0.635408 -0.96,0.182256 z M 210.12946,83.373523 c -0.13272,-0.345886 0.007,-0.493525 0.46725,-0.493525 0.36464,0 0.60029,0.168973 0.52995,0.38 -0.1975,0.592515 -0.78761,0.659695 -0.9972,0.113525 z M 95.619998,82.981402 c 0.231,-0.09244 0.507,-0.08107 0.613333,0.02526 0.106334,0.106333 -0.08267,0.181965 -0.42,0.16807 -0.372782,-0.01535 -0.448608,-0.09118 -0.193333,-0.193333 z m 8.000002,0 c 0.231,-0.09244 0.507,-0.08107 0.61333,0.02526 0.10633,0.106333 -0.0827,0.181965 -0.42,0.16807 -0.37278,-0.01535 -0.44861,-0.09118 -0.19333,-0.193333 z m 16.64,0 c 0.231,-0.09244 0.507,-0.08107 0.61333,0.02526 0.10633,0.106333 -0.0827,0.181965 -0.42,0.16807 -0.37278,-0.01535 -0.44861,-0.09118 -0.19333,-0.193333 z m 77.44,0 c 0.231,-0.09244 0.507,-0.08107 0.61333,0.02526 0.10633,0.106333 -0.0827,0.181965 -0.42,0.16807 -0.37278,-0.01535 -0.44861,-0.09118 -0.19333,-0.193333 z"
         id="path2" />
    </g>
  </g>
</svg>
